<svg width="33" height="33" viewBox="0 0 33 33" fill="none" xmlns="http://www.w3.org/2000/svg">
<path d="M16.5 2.75C8.91 2.75 2.75 8.91 2.75 16.5C2.75 24.09 8.91 30.25 16.5 30.25C24.09 30.25 30.25 24.09 30.25 16.5C30.25 8.91 24.09 2.75 16.5 2.75ZM16.5 8.25C19.1538 8.25 21.3125 10.4088 21.3125 13.0625C21.3125 15.7163 19.1538 17.875 16.5 17.875C13.8463 17.875 11.6875 15.7163 11.6875 13.0625C11.6875 10.4088 13.8463 8.25 16.5 8.25ZM16.5 27.5C13.7088 27.5 10.4088 26.3725 8.0575 23.54C10.466 21.6504 13.4387 20.6234 16.5 20.6234C19.5613 20.6234 22.534 21.6504 24.9425 23.54C22.5913 26.3725 19.2913 27.5 16.5 27.5Z" fill="white"/>
</svg>
