<svg width="111" height="87" viewBox="0 0 111 87" fill="none" xmlns="http://www.w3.org/2000/svg">
<path d="M62.3158 76.3684H18.7789C18.0419 76.3684 17.3351 76.1389 16.8139 75.7302C16.2928 75.3216 16 74.7674 16 74.1895V13.1789C16 12.6011 16.2928 12.0468 16.8139 11.6382C17.3351 11.2296 18.0419 11 18.7789 11H96.5895C97.3265 11 98.0333 11.2296 98.5545 11.6382C99.0756 12.0468 99.3684 12.6011 99.3684 13.1789V47.3158M76.2105 69.1053H90.1053M104 69.1053H90.1053M90.1053 69.1053V58.2105M90.1053 69.1053V80" stroke="#B8B8B8" strokeWidth="5" strokeLinecap="round" strokeLinejoin="round"/>
<path d="M51.2552 30.8597C50.9247 30.6706 50.5503 30.5715 50.1694 30.5725C49.7886 30.5735 49.4147 30.6745 49.0851 30.8653C48.7555 31.0562 48.4818 31.3302 48.2914 31.66C48.101 31.9898 48.0005 32.3639 48 32.7447V54.2519C47.9999 54.633 48.0999 55.0075 48.29 55.3379C48.4802 55.6682 48.7538 55.9427 49.0835 56.134C49.4132 56.3253 49.7874 56.4266 50.1685 56.4277C50.5497 56.4288 50.9244 56.3298 51.2552 56.1405L70.069 45.3887C70.402 45.1985 70.6788 44.9237 70.8713 44.592C71.0638 44.2603 71.1652 43.8836 71.1652 43.5001C71.1652 43.1166 71.0638 42.7399 70.8713 42.4083C70.6788 42.0766 70.402 41.8017 70.069 41.6115L51.2552 30.8597V30.8597Z" stroke="#B8B8B8" strokeWidth="5" strokeLinecap="round" strokeLinejoin="round"/>
</svg>
