<svg width="24" height="24" viewBox="0 0 24 24" fill="none" xmlns="http://www.w3.org/2000/svg">
<path d="M16.719 19.752L16.079 14.628C15.9883 13.9022 15.6355 13.2346 15.0871 12.7506C14.5387 12.2667 13.8324 11.9997 13.101 12H10.897C10.1659 12.0002 9.46004 12.2674 8.91204 12.7513C8.36405 13.2352 8.01162 13.9026 7.92096 14.628L7.27996 19.752C7.24478 20.0335 7.2699 20.3193 7.35364 20.5903C7.43738 20.8614 7.57783 21.1116 7.76567 21.3242C7.9535 21.5368 8.18442 21.707 8.44309 21.8235C8.70176 21.94 8.98226 22.0002 9.26596 22H14.734C15.0176 22.0001 15.298 21.9398 15.5565 21.8232C15.8151 21.7066 16.0459 21.5364 16.2336 21.3238C16.4213 21.1112 16.5617 20.8611 16.6454 20.5901C16.729 20.3191 16.7541 20.0334 16.719 19.752V19.752Z" stroke="white" strokeWidth="2" strokeLinecap="round" strokeLinejoin="round"/>
<path d="M12 8C13.6569 8 15 6.65685 15 5C15 3.34315 13.6569 2 12 2C10.3431 2 9 3.34315 9 5C9 6.65685 10.3431 8 12 8Z" stroke="white" strokeWidth="2"/>
<path d="M4 11C5.10457 11 6 10.1046 6 9C6 7.89543 5.10457 7 4 7C2.89543 7 2 7.89543 2 9C2 10.1046 2.89543 11 4 11Z" stroke="white" strokeWidth="2"/>
<path d="M20 11C21.1046 11 22 10.1046 22 9C22 7.89543 21.1046 7 20 7C18.8954 7 18 7.89543 18 9C18 10.1046 18.8954 11 20 11Z" stroke="white" strokeWidth="2"/>
<path d="M3.99996 14H3.69396C3.22053 13.9999 2.76242 14.1678 2.40114 14.4738C2.03986 14.7798 1.79884 15.204 1.72096 15.671L1.38796 17.671C1.34018 17.9575 1.35538 18.2511 1.43253 18.5311C1.50968 18.8112 1.64692 19.0711 1.83469 19.2928C2.02247 19.5144 2.25628 19.6925 2.51986 19.8146C2.78344 19.9368 3.07046 20 3.36096 20H6.99996M20 14H20.306C20.7794 13.9999 21.2375 14.1678 21.5988 14.4738C21.9601 14.7798 22.2011 15.204 22.279 15.671L22.612 17.671C22.6598 17.9575 22.6445 18.2511 22.5674 18.5311C22.4902 18.8112 22.353 19.0711 22.1652 19.2928C21.9775 19.5144 21.7437 19.6925 21.4801 19.8146C21.2165 19.9368 20.9295 20 20.639 20H17" stroke="white" strokeWidth="2" strokeLinecap="round" strokeLinejoin="round"/>
</svg>
