<svg width="68" height="68" viewBox="0 0 68 68" fill="none" xmlns="http://www.w3.org/2000/svg">
<g clipPath="url(#clip0_194_2622)">
<path fillRule="evenodd" clipRule="evenodd" d="M34 4.24999C29.4913 4.24999 25.1673 6.04106 21.9792 9.22917C18.7911 12.4173 17 16.7413 17 21.25C17 25.7587 18.7911 30.0827 21.9792 33.2708C25.1673 36.4589 29.4913 38.25 34 38.25C38.5087 38.25 42.8327 36.4589 46.0208 33.2708C49.2089 30.0827 51 25.7587 51 21.25C51 16.7413 49.2089 12.4173 46.0208 9.22917C42.8327 6.04106 38.5087 4.24999 34 4.24999V4.24999ZM12.75 21.25C12.7501 17.1377 13.9433 13.1139 16.185 9.66634C18.4267 6.21883 21.6205 3.4958 25.3791 1.82751C29.1378 0.159223 33.2997 -0.38265 37.3602 0.267611C41.4207 0.917872 45.2053 2.73233 48.255 5.49092C51.3047 8.24952 53.4885 11.8337 54.5415 15.8089C55.5945 19.784 55.4715 23.9793 54.1874 27.8859C52.9033 31.7925 50.5132 35.2426 47.3071 37.8178C44.101 40.3929 40.2166 41.9825 36.125 42.3937V51H44.625C45.1886 51 45.7291 51.2239 46.1276 51.6224C46.5261 52.0209 46.75 52.5614 46.75 53.125C46.75 53.6886 46.5261 54.2291 46.1276 54.6276C45.7291 55.0261 45.1886 55.25 44.625 55.25H36.125V65.875C36.125 66.4386 35.9011 66.9791 35.5026 67.3776C35.1041 67.7761 34.5636 68 34 68C33.4364 68 32.8959 67.7761 32.4974 67.3776C32.0989 66.9791 31.875 66.4386 31.875 65.875V55.25H23.375C22.8114 55.25 22.2709 55.0261 21.8724 54.6276C21.4739 54.2291 21.25 53.6886 21.25 53.125C21.25 52.5614 21.4739 52.0209 21.8724 51.6224C22.2709 51.2239 22.8114 51 23.375 51H31.875V42.3937C26.6334 41.8669 21.7743 39.412 18.2405 35.5051C14.7066 31.5982 12.7499 26.518 12.75 21.25V21.25Z" fill="black"/>
</g>
<defs>
<clipPath id="clip0_194_2622">
<rect width="68" height="68" fill="white"/>
</clipPath>
</defs>
</svg>
