<svg width="24" height="24" viewBox="0 0 24 24" fill="none" xmlns="http://www.w3.org/2000/svg">
<path fillRule="evenodd" clipRule="evenodd" d="M11 20C11 19.7348 10.8946 19.4804 10.7071 19.2929C10.5196 19.1054 10.2652 19 10 19H5V5H10C10.2652 5 10.5196 4.89464 10.7071 4.70711C10.8946 4.51957 11 4.26522 11 4C11 3.73478 10.8946 3.48043 10.7071 3.29289C10.5196 3.10536 10.2652 3 10 3H5C4.46957 3 3.96086 3.21071 3.58579 3.58579C3.21071 3.96086 3 4.46957 3 5V19C3 19.5304 3.21071 20.0391 3.58579 20.4142C3.96086 20.7893 4.46957 21 5 21H10C10.2652 21 10.5196 20.8946 10.7071 20.7071C10.8946 20.5196 11 20.2652 11 20Z" fill="#111111"/>
<path d="M21.714 12.7001C21.8969 12.5142 21.9996 12.2639 22 12.0031V11.9971C21.9995 11.7329 21.8941 11.4797 21.707 11.2931L17.707 7.29308C17.6148 7.19757 17.5044 7.12139 17.3824 7.06898C17.2604 7.01657 17.1292 6.98898 16.9964 6.98783C16.8636 6.98668 16.7319 7.01198 16.609 7.06226C16.4862 7.11254 16.3745 7.18679 16.2806 7.28069C16.1867 7.37458 16.1125 7.48623 16.0622 7.60913C16.0119 7.73202 15.9866 7.8637 15.9877 7.99648C15.9889 8.12926 16.0165 8.26048 16.0689 8.38249C16.1213 8.50449 16.1975 8.61483 16.293 8.70708L18.586 11.0001H9C8.73478 11.0001 8.48043 11.1054 8.29289 11.293C8.10536 11.4805 8 11.7349 8 12.0001C8 12.2653 8.10536 12.5197 8.29289 12.7072C8.48043 12.8947 8.73478 13.0001 9 13.0001H18.586L16.293 15.2931C16.1108 15.4817 16.01 15.7343 16.0123 15.9965C16.0146 16.2587 16.1198 16.5095 16.3052 16.6949C16.4906 16.8803 16.7414 16.9855 17.0036 16.9878C17.2658 16.99 17.5184 16.8892 17.707 16.7071L21.707 12.7071L21.714 12.7001V12.7001Z" fill="#111111"/>
</svg>
