<svg width="68" height="68" viewBox="0 0 68 68" fill="none" xmlns="http://www.w3.org/2000/svg">
<path fillRule="evenodd" clipRule="evenodd" d="M40.375 8.5C39.8114 8.5 39.2709 8.27612 38.8724 7.8776C38.4739 7.47909 38.25 6.93859 38.25 6.375C38.25 5.81141 38.4739 5.27091 38.8724 4.8724C39.2709 4.47388 39.8114 4.25 40.375 4.25H61.625C62.1886 4.25 62.7291 4.47388 63.1276 4.8724C63.5261 5.27091 63.75 5.81141 63.75 6.375V27.625C63.75 28.1886 63.5261 28.7291 63.1276 29.1276C62.7291 29.5261 62.1886 29.75 61.625 29.75C61.0614 29.75 60.5209 29.5261 60.1224 29.1276C59.7239 28.7291 59.5 28.1886 59.5 27.625V11.5048L41.9518 29.053C45.4019 33.2741 47.0979 38.6597 46.6887 44.096C46.2796 49.5324 43.7968 54.6035 39.7537 58.2607C35.7107 61.9178 30.4167 63.8812 24.9667 63.7447C19.5167 63.6082 14.3276 61.3823 10.4726 57.5274C6.61771 53.6724 4.39181 48.4833 4.25532 43.0333C4.11884 37.5834 6.0822 32.2894 9.73935 28.2463C13.3965 24.2032 18.4677 21.7204 23.904 21.3113C29.3403 20.9022 34.726 22.5981 38.947 26.0483L56.4953 8.5H40.375ZM25.5 25.5C20.9913 25.5 16.6673 27.2911 13.4792 30.4792C10.2911 33.6673 8.50001 37.9913 8.50001 42.5C8.50001 47.0087 10.2911 51.3327 13.4792 54.5208C16.6673 57.7089 20.9913 59.5 25.5 59.5C30.0087 59.5 34.3327 57.7089 37.5208 54.5208C40.7089 51.3327 42.5 47.0087 42.5 42.5C42.5 37.9913 40.7089 33.6673 37.5208 30.4792C34.3327 27.2911 30.0087 25.5 25.5 25.5V25.5Z" fill="black"/>
</svg>
