<svg width="54" height="54" viewBox="0 0 54 54" fill="none" xmlns="http://www.w3.org/2000/svg">
<path d="M21.8588 27C24.4485 27 26.3588 25.0898 26.3588 22.5C26.3588 19.9102 24.4485 18 21.8588 18C19.269 18 17.3588 19.9102 17.3588 22.5C17.3588 25.0898 19.2668 27 21.8588 27Z" fill="#111111"/>
<path d="M45 9H9C6.51825 9 4.5 10.8922 4.5 13.2188V40.7812C4.5 43.1078 6.51825 45 9 45H45C47.4818 45 49.5 43.1078 49.5 40.7812V13.2188C49.5 10.8922 47.4818 9 45 9ZM45 40.5L9 40.4753V13.5L45 13.5248V40.5Z" fill="#111111"/>
<path d="M31.5 20.25H40.5V24.75H31.5V20.25ZM33.75 29.25H40.5V33.75H33.75V29.25ZM30.2175 34.956C30.2175 31.8645 26.4465 28.6875 21.8588 28.6875C17.271 28.6875 13.5 31.8645 13.5 34.956V36H30.2175V34.956Z" fill="#111111"/>
</svg>
