<svg width="18" height="11" viewBox="0 0 18 11" fill="none" xmlns="http://www.w3.org/2000/svg">
<path d="M15.7239 -8.19564e-08L1.4295 -8.19564e-08C1.04236 -8.19564e-08 0.707331 0.120949 0.424422 0.362847C0.141512 0.604745 5.71534e-05 0.891204 5.71534e-05 1.22222C5.71534e-05 1.47685 0.0893971 1.71238 0.268077 1.92882L7.41527 10.4844C7.69818 10.8281 8.08532 11 8.57669 11C9.06806 11 9.4552 10.8281 9.73811 10.4844L16.8853 1.92882C17.064 1.71238 17.1533 1.47685 17.1533 1.22222C17.1533 0.891204 17.0119 0.604745 16.729 0.362847C16.446 0.120949 16.111 -8.19564e-08 15.7239 -8.19564e-08Z" fill="black"/>
</svg>
